<svg xmlns="http://www.w3.org/2000/svg">
  <symbol id="calendar-month" viewBox="0 -960 960 960">
    <path
      d="M200-80q-33 0-56.5-23.5T120-160v-560q0-33 23.5-56.5T200-800h40v-80h80v80h320v-80h80v80h40q33 0 56.5 23.5T840-720v560q0 33-23.5 56.5T760-80H200Zm0-80h560v-400H200v400Zm0-480h560v-80H200v80Zm0 0v-80 80Zm280 240q-17 0-28.5-11.5T440-440q0-17 11.5-28.5T480-480q17 0 28.5 11.5T520-440q0 17-11.5 28.5T480-400Zm-188.5-11.5Q280-423 280-440t11.5-28.5Q303-480 320-480t28.5 11.5Q360-457 360-440t-11.5 28.5Q337-400 320-400t-28.5-11.5ZM640-400q-17 0-28.5-11.5T600-440q0-17 11.5-28.5T640-480q17 0 28.5 11.5T680-440q0 17-11.5 28.5T640-400ZM480-240q-17 0-28.5-11.5T440-280q0-17 11.5-28.5T480-320q17 0 28.5 11.5T520-280q0 17-11.5 28.5T480-240Zm-188.5-11.5Q280-263 280-280t11.5-28.5Q303-320 320-320t28.5 11.5Q360-297 360-280t-11.5 28.5Q337-240 320-240t-28.5-11.5ZM640-240q-17 0-28.5-11.5T600-280q0-17 11.5-28.5T640-320q17 0 28.5 11.5T680-280q0 17-11.5 28.5T640-240Z" />
  </symbol>

  <symbol id="calendar-month-filled" viewBox="0 -960 960 960">
    <path
      d="M480-400q-17 0-28.5-11.5T440-440q0-17 11.5-28.5T480-480q17 0 28.5 11.5T520-440q0 17-11.5 28.5T480-400Zm-188.5-11.5Q280-423 280-440t11.5-28.5Q303-480 320-480t28.5 11.5Q360-457 360-440t-11.5 28.5Q337-400 320-400t-28.5-11.5ZM640-400q-17 0-28.5-11.5T600-440q0-17 11.5-28.5T640-480q17 0 28.5 11.5T680-440q0 17-11.5 28.5T640-400ZM480-240q-17 0-28.5-11.5T440-280q0-17 11.5-28.5T480-320q17 0 28.5 11.5T520-280q0 17-11.5 28.5T480-240Zm-188.5-11.5Q280-263 280-280t11.5-28.5Q303-320 320-320t28.5 11.5Q360-297 360-280t-11.5 28.5Q337-240 320-240t-28.5-11.5ZM640-240q-17 0-28.5-11.5T600-280q0-17 11.5-28.5T640-320q17 0 28.5 11.5T680-280q0 17-11.5 28.5T640-240ZM200-80q-33 0-56.5-23.5T120-160v-560q0-33 23.5-56.5T200-800h40v-80h80v80h320v-80h80v80h40q33 0 56.5 23.5T840-720v560q0 33-23.5 56.5T760-80H200Zm0-80h560v-400H200v400Z" />
  </symbol>

  <symbol id="assignment" viewBox="0 -960 960 960">
    <path
      d="M200-120q-33 0-56.5-23.5T120-200v-560q0-33 23.5-56.5T200-840h168q13-36 43.5-58t68.5-22q38 0 68.5 22t43.5 58h168q33 0 56.5 23.5T840-760v560q0 33-23.5 56.5T760-120H200Zm0-80h560v-560H200v560Zm80-80h280v-80H280v80Zm0-160h400v-80H280v80Zm0-160h400v-80H280v80Zm221.5-198.5Q510-807 510-820t-8.5-21.5Q493-850 480-850t-21.5 8.5Q450-833 450-820t8.5 21.5Q467-790 480-790t21.5-8.5ZM200-200v-560 560Z" />
  </symbol>

  <symbol id="assignment-filled" viewBox="0 -960 960 960">
    <path
      d="M200-120q-33 0-56.5-23.5T120-200v-560q0-33 23.5-56.5T200-840h168q13-36 43.5-58t68.5-22q38 0 68.5 22t43.5 58h168q33 0 56.5 23.5T840-760v560q0 33-23.5 56.5T760-120H200Zm80-160h280v-80H280v80Zm0-160h400v-80H280v80Zm0-160h400v-80H280v80Zm221.5-198.5Q510-807 510-820t-8.5-21.5Q493-850 480-850t-21.5 8.5Q450-833 450-820t8.5 21.5Q467-790 480-790t21.5-8.5Z" />
  </symbol>

  <symbol id="group" viewBox="0 -960 960 960">
    <path
      d="M40-160v-112q0-34 17.5-62.5T104-378q62-31 126-46.5T360-440q66 0 130 15.5T616-378q29 15 46.5 43.5T680-272v112H40Zm720 0v-120q0-44-24.5-84.5T666-434q51 6 96 20.5t84 35.5q36 20 55 44.5t19 53.5v120H760ZM247-527q-47-47-47-113t47-113q47-47 113-47t113 47q47 47 47 113t-47 113q-47 47-113 47t-113-47Zm466 0q-47 47-113 47-11 0-28-2.5t-28-5.5q27-32 41.5-71t14.5-81q0-42-14.5-81T544-792q14-5 28-6.5t28-1.5q66 0 113 47t47 113q0 66-47 113ZM120-240h480v-32q0-11-5.5-20T580-306q-54-27-109-40.5T360-360q-56 0-111 13.5T140-306q-9 5-14.5 14t-5.5 20v32Zm296.5-343.5Q440-607 440-640t-23.5-56.5Q393-720 360-720t-56.5 23.5Q280-673 280-640t23.5 56.5Q327-560 360-560t56.5-23.5ZM360-240Zm0-400Z" />
  </symbol>

  <symbol id="group-filled" viewBox="0 -960 960 960">
    <path
      d="M40-160v-112q0-34 17.5-62.5T104-378q62-31 126-46.5T360-440q66 0 130 15.5T616-378q29 15 46.5 43.5T680-272v112H40Zm720 0v-120q0-44-24.5-84.5T666-434q51 6 96 20.5t84 35.5q36 20 55 44.5t19 53.5v120H760ZM247-527q-47-47-47-113t47-113q47-47 113-47t113 47q47 47 47 113t-47 113q-47 47-113 47t-113-47Zm466 0q-47 47-113 47-11 0-28-2.5t-28-5.5q27-32 41.5-71t14.5-81q0-42-14.5-81T544-792q14-5 28-6.5t28-1.5q66 0 113 47t47 113q0 66-47 113Z" />
  </symbol>

  <symbol id="passkey" viewBox="0 -960 960 960">
    <path
      d="M120-160v-112q0-34 17.5-62.5T184-378q62-31 126-46.5T440-440q20 0 40 1.5t40 4.5q-4 58 21 109.5t73 84.5v80H120ZM760-40l-60-60v-186q-44-13-72-49.5T600-420q0-58 41-99t99-41q58 0 99 41t41 99q0 45-25.5 80T790-290l50 50-60 60 60 60-80 80ZM440-480q-66 0-113-47t-47-113q0-66 47-113t113-47q66 0 113 47t47 113q0 66-47 113t-113 47Zm328.5 68.5Q780-423 780-440t-11.5-28.5Q757-480 740-480t-28.5 11.5Q700-457 700-440t11.5 28.5Q723-400 740-400t28.5-11.5Z" />
  </symbol>

  <symbol id="logout" viewBox="0 -960 960 960">
    <path
      d="M200-120q-33 0-56.5-23.5T120-200v-560q0-33 23.5-56.5T200-840h280v80H200v560h280v80zm440-160-55-58 102-102H360v-80h327L585-622l55-58 200 200z" />
  </symbol>

  <symbol id="add" viewBox="0 -960 960 960">
    <path d="M440-440H200v-80h240v-240h80v240h240v80H520v240h-80z" />
  </symbol>

  <symbol id="edit" viewBox="0 -960 960 960">
    <path
      d="M200-200h57l391-391-57-57-391 391zm-80 80v-170l528-527q12-11 26.5-17t30.5-6 31 6 26 18l55 56q12 11 17.5 26t5.5 30q0 16-5.5 30.5T817-647L290-120zm640-584-56-56zm-141 85-28-29 57 57z" />
  </symbol>

  <symbol id="close" viewBox="0 -960 960 960">
    <path
      d="m256-200-56-56 224-224-224-224 56-56 224 224 224-224 56 56-224 224 224 224-56 56-224-224z" />
  </symbol>

  <symbol id="arrow-back" viewBox="0 -960 960 960">
    <path d="m313-440 224 224-57 56-320-320 320-320 57 56-224 224h487v80z" />
  </symbol>

  <svg id="open-in-new-window"
    viewBox="0 -960 960 960">
    <path
      d="M200-120q-33 0-56.5-23.5T120-200v-560q0-33 23.5-56.5T200-840h280v80H200v560h560v-280h80v280q0 33-23.5 56.5T760-120zm188-212-56-56 372-372H560v-80h280v280h-80v-144z" />
  </svg>
</svg>